<?xml version="1.0" standalone="no"?>
<!DOCTYPE svg PUBLIC "-//W3C//DTD SVG 20010904//EN"
 "http://www.w3.org/TR/2001/REC-SVG-20010904/DTD/svg10.dtd">
<svg version="1.0" xmlns="http://www.w3.org/2000/svg"
 width="300.000000pt" height="300.000000pt" viewBox="0 0 300.000000 300.000000"
 preserveAspectRatio="xMidYMid meet">
<metadata>
Created by potrace 1.10, written by Peter Selinger 2001-2011
</metadata>
<g transform="translate(0.000000,300.000000) scale(0.100000,-0.100000)"
fill="#000000" stroke="none">
<path d="M1428 1908 c-2 -310 -6 -402 -15 -406 -10 -3 -13 49 -13 236 0 232
-1 240 -23 273 -58 86 -144 102 -257 48 -87 -41 -254 -209 -323 -325 -119
-202 -146 -306 -149 -590 -2 -183 -1 -203 19 -244 44 -95 114 -134 243 -133
139 2 327 67 416 145 68 60 78 97 81 313 l3 189 31 17 c29 14 36 15 70 1 l37
-14 4 -197 c3 -187 4 -198 28 -241 33 -59 92 -101 192 -140 133 -51 224 -72
323 -73 131 -1 193 33 238 131 20 43 22 62 21 242 0 219 -13 296 -77 446 -112
266 -359 503 -524 504 -63 0 -99 -13 -137 -48 -40 -38 -56 -81 -56 -157 0 -51
-3 -65 -15 -65 -13 0 -15 34 -15 245 l0 245 -50 0 -50 0 -2 -402z m62 162 c1
-212 4 -242 31 -266 19 -17 19 -18 -1 -40 -18 -18 -21 -35 -22 -110 0 -49 0
-99 1 -111 1 -33 36 -65 64 -58 17 5 26 -1 40 -25 29 -49 3 -68 -36 -26 -35
37 -88 50 -131 32 -19 -8 -41 -24 -48 -35 -13 -22 -48 -29 -48 -11 0 6 10 24
22 40 16 22 27 28 43 24 13 -3 27 2 38 14 17 18 22 150 26 630 1 74 5 132 10
132 6 0 10 -79 11 -190z m-214 -55 c53 -22 64 -59 64 -223 l0 -138 -33 -12
c-49 -18 -114 -16 -121 4 -13 34 -6 88 15 110 17 18 19 26 9 44 -6 11 -10 39
-8 62 3 44 -15 66 -46 55 -15 -6 -16 -17 -10 -82 8 -86 -1 -94 -42 -40 -33 44
-67 45 -72 3 -3 -22 2 -30 25 -40 71 -30 99 -88 42 -88 -22 0 -39 10 -63 36
-36 40 -69 43 -74 8 -2 -16 7 -28 32 -44 20 -12 36 -25 36 -30 0 -4 -24 -7
-52 -6 -50 1 -53 0 -53 -24 0 -24 3 -25 73 -28 70 -3 78 0 73 31 -2 13 27 20
54 13 14 -4 25 -13 25 -22 0 -34 -34 -86 -66 -101 -32 -16 -34 -16 -69 15 -40
36 -57 39 -76 16 -19 -23 -1 -45 46 -58 49 -14 53 -27 14 -50 -23 -14 -44 -17
-78 -13 -55 6 -71 1 -71 -22 0 -31 20 -40 79 -34 l56 6 -23 -23 c-27 -26 -25
-54 4 -58 32 -5 54 24 54 68 0 50 36 65 95 38 56 -25 8 -138 -60 -138 -14 0
-28 -7 -32 -15 -4 -12 -17 -15 -50 -13 -53 3 -77 -18 -53 -47 11 -13 24 -15
68 -9 66 8 70 -11 6 -33 -55 -19 -69 -35 -55 -62 17 -30 42 -26 74 11 l28 33
-5 -66 c-5 -54 -3 -69 10 -80 11 -9 20 -10 32 -2 15 9 16 26 13 115 -2 88 0
107 14 121 26 27 32 21 41 -44 10 -70 32 -95 59 -68 15 14 14 22 -6 82 -17 54
-20 76 -13 109 9 40 13 45 82 79 l72 36 0 -161 c0 -184 -7 -220 -52 -263 -68
-66 -263 -133 -382 -133 -88 1 -137 26 -166 84 -21 45 -22 55 -17 249 5 211
12 258 62 380 76 190 275 417 405 463 45 17 44 17 86 -1z m557 -14 c120 -59
265 -219 347 -386 80 -162 92 -217 97 -450 4 -194 4 -201 -19 -244 -31 -59
-73 -81 -158 -81 -117 0 -341 68 -419 127 -54 42 -61 71 -61 263 0 93 3 170 8
170 4 -1 41 -18 82 -38 66 -33 76 -42 87 -75 13 -39 8 -79 -18 -144 -12 -29
-11 -35 4 -50 28 -28 50 -6 61 60 10 61 27 73 47 35 8 -15 10 -52 6 -114 -5
-76 -4 -94 9 -105 11 -9 20 -10 32 -2 14 8 16 23 14 72 -4 66 5 77 32 36 19
-28 47 -32 67 -9 19 24 0 46 -55 64 -58 19 -60 36 -3 32 60 -3 87 5 87 27 0
30 -24 42 -67 35 -32 -5 -41 -3 -46 10 -4 9 -18 16 -34 16 -66 0 -116 87 -74
129 42 42 118 16 108 -37 -3 -17 2 -32 19 -48 41 -42 78 -5 42 41 l-21 27 54
-2 c77 -3 79 -3 79 24 0 31 -19 37 -83 30 -43 -5 -56 -3 -76 13 -30 24 -22 39
29 53 33 9 40 15 40 35 0 39 -35 42 -76 6 -19 -17 -40 -31 -47 -31 -37 1 -97
64 -97 102 0 20 5 24 47 32 28 6 32 4 35 -16 3 -21 8 -23 79 -26 80 -3 97 6
82 44 -5 13 -17 15 -60 12 -30 -3 -56 -2 -58 2 -2 4 14 17 35 29 41 23 49 38
28 59 -21 21 -45 13 -72 -23 -20 -26 -35 -35 -57 -35 -24 0 -29 4 -29 24 0 18
12 32 51 55 53 33 60 54 26 75 -16 9 -24 5 -52 -29 l-34 -39 -7 28 c-3 15 -4
46 -1 69 7 51 -3 70 -34 65 -22 -3 -24 -8 -25 -58 0 -30 -3 -62 -7 -71 -5 -10
0 -22 13 -34 22 -20 27 -73 10 -106 -9 -15 -22 -19 -64 -19 -29 0 -67 5 -85
11 l-31 11 0 136 c0 158 12 195 70 225 41 21 82 17 143 -12z m-253 -222 c0
-24 -23 -21 -28 4 -2 10 3 17 12 17 10 0 16 -9 16 -21z m-20 -154 c0 -114 -8
-151 -24 -109 -3 9 -6 65 -6 125 0 90 3 109 15 109 13 0 15 -21 15 -125z m157
-55 c57 0 58 -1 78 -37 11 -21 34 -47 52 -59 l32 -21 -28 -27 c-15 -14 -37
-26 -49 -26 -12 0 -58 18 -102 40 l-80 40 0 55 c0 52 1 55 19 45 11 -5 46 -10
78 -10z m-377 -42 l0 -53 -70 -37 c-38 -21 -78 -38 -88 -38 -10 0 -31 13 -46
29 l-27 28 25 17 c14 9 35 34 46 56 20 38 21 39 82 43 35 2 66 4 71 5 4 1 7
-22 7 -50z"/>
</g>
</svg>
